<mxfile host="Electron" modified="2023-10-28T02:11:50.229Z" agent="Mozilla/5.0 (X11; Linux x86_64) AppleWebKit/537.36 (KHTML, like Gecko) draw.io/21.6.5 Chrome/114.0.5735.243 Electron/25.3.1 Safari/537.36" etag="Zf3NAyS6vuTZhE0XuOwp" version="21.6.5" type="device">
  <diagram id="BB-P8LQBv9p690ByxCHv" name="Página-1">
    <mxGraphModel dx="4040" dy="2196" grid="1" gridSize="1" guides="0" tooltips="1" connect="1" arrows="1" fold="1" page="1" pageScale="1" pageWidth="1169" pageHeight="827" background="none" math="1" shadow="1">
      <root>
        <mxCell id="0" />
        <mxCell id="1" parent="0" />
        <mxCell id="gBwdEuNxvwQ_uvEKrTT3-32" style="edgeStyle=orthogonalEdgeStyle;rounded=0;orthogonalLoop=1;jettySize=auto;html=1;strokeWidth=15;" edge="1" parent="1" source="gBwdEuNxvwQ_uvEKrTT3-30">
          <mxGeometry relative="1" as="geometry">
            <mxPoint x="4230" y="702" as="targetPoint" />
          </mxGeometry>
        </mxCell>
        <mxCell id="gBwdEuNxvwQ_uvEKrTT3-30" value="" style="rounded=1;whiteSpace=wrap;html=1;fillColor=none;" vertex="1" parent="1">
          <mxGeometry x="3221" y="573" width="662" height="258" as="geometry" />
        </mxCell>
        <mxCell id="gBwdEuNxvwQ_uvEKrTT3-21" style="edgeStyle=orthogonalEdgeStyle;rounded=0;orthogonalLoop=1;jettySize=auto;html=1;strokeWidth=15;" edge="1" parent="1" source="gBwdEuNxvwQ_uvEKrTT3-5" target="gBwdEuNxvwQ_uvEKrTT3-16">
          <mxGeometry relative="1" as="geometry" />
        </mxCell>
        <mxCell id="gBwdEuNxvwQ_uvEKrTT3-5" value="" style="rounded=1;whiteSpace=wrap;html=1;fillColor=none;" vertex="1" parent="1">
          <mxGeometry x="1843" y="571" width="662" height="258" as="geometry" />
        </mxCell>
        <mxCell id="gBwdEuNxvwQ_uvEKrTT3-6" value="$$K_i\cdot \int_{0}^{t} e(\tau)&amp;nbsp;\,d\tau&lt;br&gt;$$" style="text;html=1;strokeColor=none;fillColor=none;align=center;verticalAlign=middle;whiteSpace=wrap;rounded=0;fontSize=66;strokeWidth=1;" vertex="1" parent="1">
          <mxGeometry x="1938" y="663" width="458" height="79" as="geometry" />
        </mxCell>
        <mxCell id="gBwdEuNxvwQ_uvEKrTT3-8" value="$$K_d\cdot\frac{\partial e(t)}{\partial t}&lt;br&gt;$$" style="text;html=1;strokeColor=none;fillColor=none;align=center;verticalAlign=middle;whiteSpace=wrap;rounded=0;fontSize=66;strokeWidth=1;" vertex="1" parent="1">
          <mxGeometry x="1948" y="1107" width="458" height="79" as="geometry" />
        </mxCell>
        <mxCell id="gBwdEuNxvwQ_uvEKrTT3-14" value="$$K_p\cdot e(t)$$" style="text;html=1;strokeColor=none;fillColor=none;align=center;verticalAlign=middle;whiteSpace=wrap;rounded=0;fontSize=66;strokeWidth=1;" vertex="1" parent="1">
          <mxGeometry x="1976" y="229" width="458" height="79" as="geometry" />
        </mxCell>
        <mxCell id="gBwdEuNxvwQ_uvEKrTT3-16" value="" style="ellipse;whiteSpace=wrap;html=1;aspect=fixed;" vertex="1" parent="1">
          <mxGeometry x="2802" y="605" width="192" height="192" as="geometry" />
        </mxCell>
        <mxCell id="gBwdEuNxvwQ_uvEKrTT3-31" style="edgeStyle=orthogonalEdgeStyle;rounded=0;orthogonalLoop=1;jettySize=auto;html=1;entryX=0;entryY=0.5;entryDx=0;entryDy=0;strokeWidth=15;" edge="1" parent="1" source="gBwdEuNxvwQ_uvEKrTT3-17" target="gBwdEuNxvwQ_uvEKrTT3-30">
          <mxGeometry relative="1" as="geometry" />
        </mxCell>
        <mxCell id="gBwdEuNxvwQ_uvEKrTT3-17" value="$$\sum$$" style="text;html=1;strokeColor=none;fillColor=none;align=center;verticalAlign=middle;whiteSpace=wrap;rounded=0;fontSize=66;strokeWidth=1;" vertex="1" parent="1">
          <mxGeometry x="2800" y="635" width="196" height="133" as="geometry" />
        </mxCell>
        <mxCell id="gBwdEuNxvwQ_uvEKrTT3-22" style="edgeStyle=orthogonalEdgeStyle;rounded=0;orthogonalLoop=1;jettySize=auto;html=1;entryX=0.5;entryY=1;entryDx=0;entryDy=0;strokeWidth=15;" edge="1" parent="1" source="gBwdEuNxvwQ_uvEKrTT3-18" target="gBwdEuNxvwQ_uvEKrTT3-16">
          <mxGeometry relative="1" as="geometry" />
        </mxCell>
        <mxCell id="gBwdEuNxvwQ_uvEKrTT3-18" value="" style="rounded=1;whiteSpace=wrap;html=1;fillColor=none;" vertex="1" parent="1">
          <mxGeometry x="1844" y="1001" width="662" height="258" as="geometry" />
        </mxCell>
        <mxCell id="gBwdEuNxvwQ_uvEKrTT3-20" style="edgeStyle=orthogonalEdgeStyle;rounded=0;orthogonalLoop=1;jettySize=auto;html=1;strokeWidth=15;entryX=0.5;entryY=0;entryDx=0;entryDy=0;" edge="1" parent="1" source="gBwdEuNxvwQ_uvEKrTT3-19" target="gBwdEuNxvwQ_uvEKrTT3-16">
          <mxGeometry relative="1" as="geometry">
            <mxPoint x="2895" y="608" as="targetPoint" />
          </mxGeometry>
        </mxCell>
        <mxCell id="gBwdEuNxvwQ_uvEKrTT3-19" value="" style="rounded=1;whiteSpace=wrap;html=1;fillColor=none;" vertex="1" parent="1">
          <mxGeometry x="1844" y="144" width="662" height="258" as="geometry" />
        </mxCell>
        <mxCell id="gBwdEuNxvwQ_uvEKrTT3-23" value="" style="ellipse;whiteSpace=wrap;html=1;aspect=fixed;" vertex="1" parent="1">
          <mxGeometry x="853" y="599" width="192" height="192" as="geometry" />
        </mxCell>
        <mxCell id="gBwdEuNxvwQ_uvEKrTT3-25" style="edgeStyle=orthogonalEdgeStyle;rounded=0;orthogonalLoop=1;jettySize=auto;html=1;strokeWidth=15;" edge="1" parent="1" source="gBwdEuNxvwQ_uvEKrTT3-24" target="gBwdEuNxvwQ_uvEKrTT3-5">
          <mxGeometry relative="1" as="geometry" />
        </mxCell>
        <mxCell id="gBwdEuNxvwQ_uvEKrTT3-26" style="edgeStyle=orthogonalEdgeStyle;rounded=0;orthogonalLoop=1;jettySize=auto;html=1;entryX=0;entryY=0.5;entryDx=0;entryDy=0;strokeWidth=15;" edge="1" parent="1" source="gBwdEuNxvwQ_uvEKrTT3-24" target="gBwdEuNxvwQ_uvEKrTT3-19">
          <mxGeometry relative="1" as="geometry" />
        </mxCell>
        <mxCell id="gBwdEuNxvwQ_uvEKrTT3-27" style="edgeStyle=orthogonalEdgeStyle;rounded=0;orthogonalLoop=1;jettySize=auto;html=1;entryX=0;entryY=0.5;entryDx=0;entryDy=0;strokeWidth=15;" edge="1" parent="1" source="gBwdEuNxvwQ_uvEKrTT3-24" target="gBwdEuNxvwQ_uvEKrTT3-18">
          <mxGeometry relative="1" as="geometry" />
        </mxCell>
        <mxCell id="gBwdEuNxvwQ_uvEKrTT3-24" value="$$\sum$$" style="text;html=1;strokeColor=none;fillColor=none;align=center;verticalAlign=middle;whiteSpace=wrap;rounded=0;fontSize=66;strokeWidth=1;" vertex="1" parent="1">
          <mxGeometry x="849" y="630" width="196" height="133" as="geometry" />
        </mxCell>
        <mxCell id="gBwdEuNxvwQ_uvEKrTT3-28" value="$$e(t)$$" style="text;html=1;strokeColor=none;fillColor=none;align=center;verticalAlign=middle;whiteSpace=wrap;rounded=0;fontSize=66;strokeWidth=1;" vertex="1" parent="1">
          <mxGeometry x="1246" y="601" width="170" height="79" as="geometry" />
        </mxCell>
        <mxCell id="gBwdEuNxvwQ_uvEKrTT3-29" value="Aeropêndulo" style="text;html=1;strokeColor=none;fillColor=none;align=center;verticalAlign=middle;whiteSpace=wrap;rounded=0;fontSize=112;strokeWidth=1;" vertex="1" parent="1">
          <mxGeometry x="3327" y="650" width="458" height="79" as="geometry" />
        </mxCell>
        <mxCell id="gBwdEuNxvwQ_uvEKrTT3-33" style="edgeStyle=orthogonalEdgeStyle;rounded=0;orthogonalLoop=1;jettySize=auto;html=1;strokeWidth=15;entryX=0.441;entryY=1.01;entryDx=0;entryDy=0;entryPerimeter=0;" edge="1" parent="1" target="gBwdEuNxvwQ_uvEKrTT3-23">
          <mxGeometry relative="1" as="geometry">
            <mxPoint x="1135" y="940" as="targetPoint" />
            <mxPoint x="3989" y="701" as="sourcePoint" />
            <Array as="points">
              <mxPoint x="3989" y="1375" />
              <mxPoint x="938" y="1375" />
            </Array>
          </mxGeometry>
        </mxCell>
        <mxCell id="gBwdEuNxvwQ_uvEKrTT3-35" value="$$\theta$$" style="text;html=1;strokeColor=none;fillColor=none;align=center;verticalAlign=middle;whiteSpace=wrap;rounded=0;fontSize=81;strokeWidth=1;" vertex="1" parent="1">
          <mxGeometry x="3941" y="564" width="183" height="79" as="geometry" />
        </mxCell>
        <mxCell id="gBwdEuNxvwQ_uvEKrTT3-37" value="" style="endArrow=classic;html=1;rounded=0;strokeWidth=15;" edge="1" parent="1" target="gBwdEuNxvwQ_uvEKrTT3-24">
          <mxGeometry width="50" height="50" relative="1" as="geometry">
            <mxPoint x="600" y="697" as="sourcePoint" />
            <mxPoint x="1251" y="869" as="targetPoint" />
          </mxGeometry>
        </mxCell>
        <mxCell id="gBwdEuNxvwQ_uvEKrTT3-38" value="&lt;span style=&quot;font-size: 82px;&quot;&gt;Referência \(\theta &#39;\)&lt;/span&gt;" style="text;html=1;strokeColor=none;fillColor=none;align=center;verticalAlign=middle;whiteSpace=wrap;rounded=0;fontSize=82;" vertex="1" parent="1">
          <mxGeometry x="345" y="501" width="581" height="78" as="geometry" />
        </mxCell>
      </root>
    </mxGraphModel>
  </diagram>
</mxfile>
